# xmcd
# Copyright (C) 1995-1998 Ti Kan
#
# Track frame offsets:
#       150
#       16680
#       34862
#       53216
#       70820
#       90677
#       105044
#
# Disc length: 1641 seconds
#
# Revision: 0
# Processed by: cddbd v1.5.1PL0 Copyright (c) Steve Scherf et al.
# Submitted via: CD-Transfer v1.0
#
DISCID=48066707
DTITLE=Various Artist - Special For Radio
DYEAR=04
DGENRE=
TTITLE0=Manic Street Preachers - The Love Of Richard Nixon
TTITLE1=Nas Feqt. Olu Dara Bridging The Gap
TTITLE2=J-Five Find A Way
TTITLE3=Magnifico and Turbolenza Giv Mi Mani
TTITLE4=Xzibit Feat. Keri Hilson Hey Now
TTITLE5=Good Charlotte Predictable
TTITLE6=Gaetana Il Party
EXTD=
EXTT0=
EXTT1=
EXTT2=
EXTT3=
EXTT4=
EXTT5=
EXTT6=
PLAYORDER=
